<svg width="20" height="20" viewBox="0 0 20 20" fill="none" xmlns="http://www.w3.org/2000/svg">
<path d="M10.5 13C11.2 13 11.7917 12.7583 12.275 12.275C12.7583 11.7917 13 11.2 13 10.5V5H16V3H12V8.5C11.7833 8.33333 11.55 8.20833 11.3 8.125C11.05 8.04167 10.7833 8 10.5 8C9.8 8 9.20833 8.24167 8.725 8.725C8.24167 9.20833 8 9.8 8 10.5C8 11.2 8.24167 11.7917 8.725 12.275C9.20833 12.7583 9.8 13 10.5 13ZM6 16C5.45 16 4.97933 15.8043 4.588 15.413C4.196 15.021 4 14.55 4 14V2C4 1.45 4.196 0.979 4.588 0.587C4.97933 0.195667 5.45 0 6 0H18C18.55 0 19.021 0.195667 19.413 0.587C19.8043 0.979 20 1.45 20 2V14C20 14.55 19.8043 15.021 19.413 15.413C19.021 15.8043 18.55 16 18 16H6ZM2 20C1.45 20 0.979333 19.8043 0.588 19.413C0.196 19.021 0 18.55 0 18V4H2V18H16V20H2Z" fill="url(#paint0_linear_512_6)"/>
<defs>
<linearGradient id="paint0_linear_512_6" x1="0" y1="0" x2="20" y2="20" gradientUnits="userSpaceOnUse">
<stop offset="0.333333" stop-color="#0055E6"/>
<stop offset="0.619792" stop-color="#3183FF"/>
<stop offset="1" stop-color="#024CDB"/>
</linearGradient>
</defs>
</svg>
